<?xml version="1.0" encoding="UTF-8"?>
<svg id="Layer_2" data-name="Layer 2" xmlns="http://www.w3.org/2000/svg" viewBox="0 0 389.52 454.69">
  <defs>
    <style>
      .cls-1 {
        fill: #302b2d;
      }
    </style>
  </defs>
  <g id="Layer_4" data-name="Layer 4">
    <g>
      <path class="cls-1" d="M340.19,170.61c1.21,.59,2.43,1.09,3.68,1.5-.37,2.97-.83,5.99-1.39,9.07-.86,6.3-2.04,12.73-3.55,19.28-12.18,52.76-34.68,86.41-54.15,106.89-11.46,12.04-21.86,19.52-28.5,23.64-4.63,2.88-7.47,7.92-7.47,13.37v72.25c-37.86,31.92-91.84,38.07-127.8,38.07-22.46,0-37.89-2.4-37.95-2.41v-84.14c-6.1-1.15-49.51-13.27-65.31-25.45-15.8-12.18,0-39,.77-43.85,5.54-34.85,5.27-50.64,5.27-50.64-19.54-6.1-35.16-11.68-12.82-34.02,22.33-22.33,27.42-60.41,62.95-127.93C109.46,18.72,185.61,20.24,185.61,20.24c7.56,0,14.89,.32,21.98,.95,0,0,6.39,.63,16.42,2.79-4.66,8-5.1,17.74-1.14,26.28l3.14,6.79c.69,1.48,.34,2.8,.07,3.45-.24,.58-.84,1.64-2.12,2.1l-6.9,2.51c-11.19,4.09-18.42,14.53-18.42,26.59s7.23,22.51,18.42,26.6l6.9,2.51c1.27,.46,1.87,1.52,2.12,2.1,.27,.65,.62,1.96-.07,3.45l-3.14,6.78c-4.13,8.91-3.47,19.11,1.76,27.3,5.21,8.16,13.95,13.03,23.36,13.03,4.18,0,8.26-.96,12.14-2.85l6.61-3.22c.46-.23,.92-.34,1.39-.34,1.12,0,2.66,.66,3.31,2.54l2.45,7.08c3.98,11.47,14.29,18.88,26.27,18.88s22.29-7.41,26.26-18.88l2.46-7.08c.65-1.87,2.18-2.54,3.3-2.54,.48,0,.93,.11,1.39,.34l6.61,3.22Z"/>
      <path class="cls-1" d="M221.23,76.52l6.9-2.51-6.9,2.52c-.87,.32-1.69,.7-2.44,1.12,.75-.43,1.57-.81,2.44-1.13Z"/>
      <path class="cls-1" d="M313.84,175.19c-.31,.59-.65,1.14-1.02,1.66,.36-.52,.71-1.07,1.02-1.66Z"/>
      <g>
        <g>
          <path class="cls-1" d="M323.25,25.63c.49,.35,1,.66,1.52,.95-.52-.29-1.03-.61-1.52-.95Zm-9.4-17.44c-.31-.59-.65-1.14-1.02-1.66,.36,.52,.71,1.07,1.02,1.66Zm0,167c-.32,.59-.66,1.14-1.02,1.66,.37-.52,.71-1.07,1.02-1.66Zm-14.05-134.28h.66c-.1,0-.2,0-.3,0-.12,0-.24,0-.36,0Z"/>
          <path class="cls-1" d="M385.03,80.33c-.28-.29-.58-.58-.9-.85-.31-.27-.64-.54-.98-.79-.16-.13-.34-.25-.52-.36-.35-.24-.71-.47-1.09-.68-.76-.42-1.58-.8-2.45-1.12l-6.9-2.52c-8.75-3.19-12.9-13.46-8.91-22.07l3.15-6.79c5.24-11.33-3.4-23.07-14.1-23.07-2.21,0-4.52,.5-6.81,1.62l-6.61,3.23c-2.18,1.06-4.47,1.56-6.73,1.56-2.6,0-5.15-.67-7.42-1.91-.52-.28-1.03-.6-1.52-.95-.65-.46-1.27-.97-1.86-1.54-.28-.28-.57-.58-.83-.88-.27-.31-.53-.62-.78-.96-.37-.49-.72-1.01-1.04-1.56-.21-.36-.41-.74-.6-1.12-.28-.58-.53-1.18-.75-1.81l-2.46-7.08c-.08-.23-.16-.45-.24-.66-.25-.65-.53-1.26-.85-1.85-.32-.59-.66-1.14-1.02-1.66-3.05-4.35-7.86-6.53-12.66-6.53-4.23,0-8.46,1.69-11.49,5.06-.28,.31-.54,.62-.8,.96-1.02,1.35-1.87,2.9-2.49,4.69l-2.45,7.09c-.22,.62-.46,1.22-.75,1.8-.19,.38-.38,.76-.6,1.12-.32,.54-.66,1.06-1.04,1.56-.25,.33-.51,.65-.78,.96-.27,.3-.54,.59-.83,.88-.58,.57-1.21,1.08-1.86,1.54-.33,.23-.66,.45-1.01,.66-2.39,1.43-5.13,2.21-7.94,2.21-2.25,0-4.54-.5-6.72-1.56l-6.61-3.23c-2.29-1.12-4.59-1.62-6.81-1.62-3.18,0-6.18,1.04-8.68,2.8-.42,.29-.83,.6-1.22,.93-.47,.41-.92,.83-1.35,1.29-4.19,4.47-5.96,11.33-2.85,18.05l3.15,6.79c3.99,8.61-.15,18.88-8.92,22.07l-6.9,2.52c-.87,.32-1.69,.7-2.44,1.12-.38,.22-.75,.45-1.1,.68-.18,.11-.35,.24-.52,.36-.34,.25-.66,.52-.98,.79-.31,.28-.61,.56-.89,.85-7.56,7.77-5.58,22.32,5.93,26.52l6.9,2.52c8.76,3.19,12.91,13.46,8.92,22.07l-3.15,6.79c-3.43,7.4-.93,14.98,4.19,19.34,.39,.33,.79,.64,1.22,.93,2.5,1.76,5.5,2.8,8.68,2.8,2.22,0,4.52-.5,6.81-1.62l6.61-3.23c2.18-1.06,4.47-1.56,6.72-1.56,2.8,0,5.54,.78,7.94,2.2,.34,.21,.68,.42,1.01,.66,.65,.46,1.26,.97,1.85,1.54,.15,.14,.29,.28,.43,.43,.42,.44,.82,.91,1.19,1.4,.37,.49,.72,1.01,1.04,1.56,.22,.36,.41,.74,.6,1.12,.28,.58,.53,1.18,.75,1.8l2.45,7.08c.62,1.78,1.47,3.35,2.49,4.68,.26,.34,.53,.66,.8,.96,3.03,3.37,7.26,5.06,11.49,5.06,4.81,0,9.61-2.18,12.66-6.53,.36-.52,.71-1.07,1.02-1.66,.32-.58,.6-1.2,.85-1.85,.08-.21,.16-.44,.24-.66l2.46-7.08c.22-.62,.46-1.22,.75-1.8,.19-.38,.38-.76,.6-1.12,.32-.54,.66-1.06,1.04-1.56,.37-.49,.77-.96,1.19-1.4,.14-.15,.28-.29,.43-.43,.58-.57,1.2-1.08,1.85-1.54,.32-.24,.66-.45,1.01-.66,2.38-1.43,5.12-2.2,7.93-2.2,2.25,0,4.54,.5,6.73,1.56l6.13,2.99,.48,.24c2.29,1.12,4.6,1.62,6.81,1.62,10.7,0,19.34-11.74,14.1-23.07l-3.15-6.79c-3.99-8.61,.15-18.88,8.91-22.07l6.9-2.52c11.52-4.2,13.5-18.75,5.94-26.52Zm-36.77,23.61c-1.31,5.76-3.61,11.15-6.7,15.95-6.73,10.48-17.23,18.22-29.47,21.16-4.05,.97-8.04,1.43-11.92,1.43-31.23,0-55.69-29.66-48.1-63.03,3.57-15.66,14.42-28.54,28.65-34.61,2.42-1.05,4.93-1.88,7.52-2.5,1.01-.24,2.03-.45,3.02-.63,.94-.17,1.87-.31,2.8-.42,.11-.02,.23-.03,.34-.04,.87-.1,1.73-.17,2.59-.23,.15,0,.3-.02,.45-.03,.79-.04,1.57-.06,2.35-.07,.12,0,.24,0,.36,0,.1,0,.2,0,.3,0,.63,0,1.26,.02,1.89,.05,.22,0,.43,.02,.64,.03,.5,.03,1,.06,1.49,.11,.22,.02,.43,.03,.64,.06,.63,.06,1.26,.14,1.89,.23,.2,.03,.41,.06,.62,.1,.51,.08,1.01,.16,1.52,.26,.18,.03,.36,.06,.54,.1,.62,.13,1.24,.27,1.85,.41,.2,.05,.41,.1,.6,.15,.54,.13,1.06,.28,1.58,.43,.13,.03,.25,.06,.37,.11,.62,.19,1.23,.39,1.84,.6,.18,.06,.35,.12,.53,.18,.62,.23,1.24,.45,1.86,.71,0,0,0,0,0,0,.75,.29,1.48,.62,2.21,.95,.37,.18,.74,.35,1.09,.54,.54,.27,1.07,.54,1.6,.83h0c.53,.29,1.05,.58,1.56,.88,.7,.41,1.38,.83,2.05,1.28,1.01,.66,1.98,1.35,2.93,2.08,0,0,0,0,0,0,1.59,1.22,3.1,2.52,4.53,3.93,.28,.28,.58,.56,.85,.85,5.41,5.54,9.57,12.37,12.01,20,.18,.54,.35,1.1,.5,1.66,2.33,8.17,2.7,17.19,.58,26.49Z"/>
          <path class="cls-1" d="M312.82,176.86c.37-.52,.71-1.07,1.02-1.66-.32,.59-.66,1.14-1.02,1.66Zm-12.66-135.95c-.12,0-.24,0-.36,0h.66c-.1,0-.2,0-.3,0Zm0,0c-.12,0-.24,0-.36,0h.66c-.1,0-.2,0-.3,0Zm12.66,135.95c.37-.52,.71-1.07,1.02-1.66-.32,.59-.66,1.14-1.02,1.66Zm0-170.32c.36,.52,.71,1.07,1.02,1.66-.31-.59-.65-1.14-1.02-1.66Zm10.42,19.1c.49,.35,1,.66,1.52,.95-.52-.29-1.03-.61-1.52-.95Zm-10.42,151.22c.37-.52,.71-1.07,1.02-1.66-.32,.59-.66,1.14-1.02,1.66Zm-12.66-135.95c-.12,0-.24,0-.36,0h.66c-.1,0-.2,0-.3,0Zm0,0c-.12,0-.24,0-.36,0h.66c-.1,0-.2,0-.3,0Zm12.66,135.95c.37-.52,.71-1.07,1.02-1.66-.32,.59-.66,1.14-1.02,1.66Zm-12.66-135.95c-.12,0-.24,0-.36,0h.66c-.1,0-.2,0-.3,0Zm0,0c-.12,0-.24,0-.36,0h.66c-.1,0-.2,0-.3,0Z"/>
        </g>
        <g>
          <path class="cls-1" d="M324.85,91.76c0,.24,0,.47,0,.7h0c-.01,.49-.04,.96-.08,1.43h0c-.02,.24-.04,.47-.07,.7h0c-.03,.24-.06,.47-.09,.7-.1,.7-.23,1.38-.38,2.05-.09,.4-.19,.8-.3,1.2-.16,.59-.36,1.18-.56,1.75-.07,.19-.14,.38-.21,.57-.15,.38-.3,.75-.47,1.12h0c-.21,.5-.45,.98-.7,1.45-.07,.13-.13,.24-.2,.37-.25,.47-.53,.92-.81,1.37-.21,.34-.44,.67-.67,1-.23,.33-.47,.64-.71,.96-.24,.31-.5,.62-.75,.92-.39,.45-.79,.9-1.21,1.32-.28,.28-.56,.55-.86,.83-.29,.27-.59,.53-.89,.78-.16,.13-.31,.25-.47,.38-.31,.24-.62,.48-.95,.72-.64,.47-1.32,.9-2,1.3-.35,.2-.7,.39-1.05,.58s-.72,.36-1.08,.53c-.18,.09-.36,.17-.55,.24-.55,.24-1.12,.46-1.69,.65-.58,.19-1.16,.37-1.75,.53-.19,.05-.39,.1-.59,.15-.25,.06-.5,.11-.75,.16-.38,.07-.75,.14-1.14,.2-.38,.06-.77,.11-1.16,.15-.36,.04-.72,.07-1.09,.09-.05,0-.1,0-.16,0-.42,.02-.85,.04-1.28,.04-.16,0-.3,0-.46-.01-.1,0-.2,0-.3,0-.3,0-.58-.02-.87-.04-.3-.02-.58-.04-.88-.07-.29-.03-.57-.06-.86-.1-.27-.03-.53-.07-.8-.12-.09,0-.18-.02-.27-.04-.5-.09-1.01-.19-1.51-.31-.3-.07-.58-.14-.87-.22-8.22-2.23-14.74-8.83-16.95-17.15-.62-2.35-.92-4.67-.92-6.92,0-.35,0-.69,.02-1.03v-.08c.01-.25,.03-.5,.05-.75,0-.01,0-.03,0-.04,0-.16,.02-.31,.04-.47,.01-.15,.03-.3,.05-.46,.01-.2,.04-.41,.07-.61,.04-.27,.07-.55,.13-.81,.04-.26,.09-.51,.14-.76,0-.01,0-.02,0-.03,.04-.19,.08-.38,.13-.58,.13-.61,.3-1.2,.47-1.79,.08-.27,.17-.54,.27-.81,.1-.31,.21-.62,.34-.92,.04-.1,.07-.21,.12-.3,.1-.25,.2-.5,.31-.74,.52-1.17,1.12-2.29,1.8-3.36,.07-.12,.16-.24,.24-.37,.34-.52,.7-1.01,1.08-1.5,.24-.31,.5-.62,.75-.92,.27-.3,.53-.6,.8-.89,.27-.29,.55-.57,.84-.84,.14-.14,.29-.28,.44-.41,.15-.14,.3-.27,.44-.4,.15-.14,.3-.27,.45-.39,.16-.13,.31-.25,.47-.38,.31-.25,.63-.49,.95-.72,.33-.23,.65-.46,.98-.67h0c.33-.22,.67-.43,1.01-.63,.18-.1,.35-.2,.53-.3,.35-.19,.7-.37,1.06-.55,.22-.11,.44-.21,.67-.32,.19-.08,.39-.17,.59-.25,.45-.19,.91-.37,1.38-.53,.05-.02,.1-.04,.16-.06,.18-.06,.38-.12,.56-.18,.19-.07,.38-.13,.58-.18,.18-.05,.37-.1,.56-.16,.17-.04,.34-.09,.51-.13,.08-.02,.16-.04,.24-.06,.16-.04,.31-.07,.47-.1,.2-.04,.41-.08,.61-.12,.2-.04,.41-.07,.61-.1,.2-.03,.41-.06,.61-.09,.21-.02,.41-.05,.62-.07,1.64-.17,3.33-.18,5.04,0,.29,.03,.57,.06,.86,.1,.27,.03,.53,.07,.8,.12,.09,0,.18,.02,.27,.04,.5,.09,1.01,.19,1.51,.31,.3,.07,.58,.14,.87,.22,.35,.09,.69,.19,1.02,.3,.33,.1,.67,.22,1,.35,.19,.07,.38,.15,.58,.22,.05,.02,.1,.04,.15,.06,.21,.09,.41,.18,.62,.27,.44,.19,.87,.4,1.3,.62,.21,.11,.42,.22,.63,.34,.21,.12,.42,.24,.63,.36,.41,.24,.81,.5,1.21,.76t0,0c.38,.26,.76,.53,1.12,.81,.25,.2,.5,.4,.75,.6,.32,.26,.63,.53,.93,.82,.15,.13,.29,.27,.44,.41,.39,.39,.78,.78,1.14,1.19,.14,.16,.27,.31,.41,.47,.16,.18,.31,.37,.46,.55,.3,.37,.59,.75,.87,1.14,.27,.39,.55,.8,.8,1.21,.13,.21,.25,.41,.38,.62,.12,.21,.24,.41,.36,.63,.13,.22,.24,.44,.36,.67,.1,.2,.21,.41,.3,.62,.1,.21,.21,.44,.3,.66,.1,.22,.19,.45,.28,.67,.09,.23,.18,.46,.26,.69,.25,.68,.47,1.38,.67,2.1,.15,.55,.27,1.11,.38,1.66,.04,.19,.07,.39,.11,.58,0,.04,.01,.08,.02,.12,.04,.21,.07,.42,.1,.63,.04,.28,.08,.56,.11,.84,.05,.38,.09,.76,.11,1.14,.01,.19,.03,.39,.04,.58,0,.04,0,.09,0,.13,.01,.19,.02,.39,.02,.58,0,.24,0,.47,0,.7Z"/>
          <path class="cls-1" d="M324.6,95.29c-.1,.7-.22,1.38-.38,2.05,.15-.67,.28-1.35,.38-2.05Z"/>
          <path class="cls-1" d="M324.43,87.03c-.04-.19-.07-.39-.11-.58,0,0,0,0,0,0,.04,.19,.07,.38,.1,.58Z"/>
          <path class="cls-1" d="M324.22,97.34c.16-.67,.28-1.35,.38-2.05-.1,.7-.23,1.38-.38,2.05Zm.11-10.89s0,0,0,0c.04,.19,.07,.39,.11,.58-.03-.19-.07-.38-.1-.58Z"/>
        </g>
      </g>
    </g>
  </g>
</svg>